<svg xmlns="http://www.w3.org/2000/svg" viewBox="0 0 512 512" width="512" height="512">
	<style>
		tspan { white-space:pre }
		.shp0 { fill: #fef5cc } 
		.shp1 { fill: #6d8abf } 
		.shp2 { fill: #fed322 } 
		.shp3 { fill: #ffde56 } 
		.shp4 { fill: #eebf00 } 
		.shp5 { fill: #d0e0fe } 
		.shp6 { fill: #ffffff } 
		.shp7 { fill: #333333 } 
	</style>
	<g id="clapper">
		<path id="clapper" class="shp0" d="M296.32 463.46C296.32 486.07 277.99 504.4 255.38 504.4C232.78 504.4 214.45 486.07 214.45 463.46L296.32 463.46Z" />
		<path id="clapper shadow" class="shp1" d="M293.13 479.31C295.18 474.44 296.32 469.08 296.32 463.46L214.45 463.46C214.45 469.08 215.58 474.44 217.63 479.31L293.13 479.31Z" />
	</g>
	<g id="body">
		<path id="body" fill-rule="evenodd" class="shp2" d="M454.85 410.97L454.85 463.46L55.92 463.46L55.92 410.97C79.62 410.97 99.21 392.52 100.64 368.86L111.47 189.31C111.47 114.43 168.66 52.92 241.74 46.04C246.23 45.62 250.78 45.39 255.38 45.39C259.98 45.39 264.53 45.62 269.02 46.04C270.01 46.14 270.99 46.24 271.97 46.35C343.64 54.58 399.3 115.44 399.3 189.31L410.13 368.86C411.55 392.52 431.15 410.97 454.85 410.97ZM190.45 84.04C186.78 87.46 183.28 91.07 179.98 94.85C183.28 91.07 186.78 87.46 190.45 84.04ZM214.56 65.87C228.5 57.5 243.97 51.42 260.45 48.16C243.97 51.42 228.5 57.5 214.56 65.87Z" />
		<path id="highlight" class="shp3" d="M454.85 410.97C431.15 410.97 411.55 392.52 410.13 368.86L399.3 189.31C399.3 115.44 343.64 54.58 271.97 46.35C268.08 46.8 264.24 47.41 260.46 48.16C326.49 61.23 376.28 119.44 376.28 189.31L387.11 368.87C388.54 392.52 408.13 410.97 431.83 410.97L431.83 410.97L431.83 463.46L454.85 463.46L454.85 410.97L454.85 410.97Z" />
	</g>
	<g id="shadow">
		<path id="Layer" class="shp4" d="M89.08 410.97C112.78 410.97 132.38 392.52 133.8 368.86L144.63 189.31C144.63 115.44 200.3 54.58 271.97 46.35C270.99 46.24 270.01 46.14 269.02 46.04C264.53 45.62 259.98 45.39 255.38 45.39L255.38 45.39C250.78 45.39 246.23 45.62 241.74 46.04C168.66 52.92 111.47 114.43 111.47 189.31L100.64 368.86C99.22 392.52 79.62 410.97 55.92 410.97L55.92 410.97L55.92 463.46L89.08 463.46L89.08 410.97L89.08 410.97Z" />
		<path id="Layer" class="shp4" d="M55.92 410.97L454.85 410.97L454.85 463.46L55.92 463.46L55.92 410.97Z" />
	</g>
	<g id="handle">
		<path id="handle" class="shp1" d="M255.38 45.4C259.98 45.4 264.53 45.62 269.02 46.04L269.02 7.6L241.74 7.6L241.74 46.04C246.23 45.62 250.78 45.4 255.38 45.4L255.38 45.4Z" />
		<path id="handle shadow" class="shp5" d="M241.74 26.4L241.74 46.04C246.23 45.62 250.78 45.39 255.38 45.39L255.38 45.39C259.98 45.39 264.53 45.62 269.02 46.04L269.02 26.4L241.74 26.4Z" />
	</g>
	<g id="reflection">
		<path id="Layer" class="shp6" d="M350.77 171.32C345.31 137.78 323.74 108.83 293.08 93.89L299.74 80.22C334.84 97.32 359.52 130.47 365.78 168.88L350.77 171.32Z" />
		<path id="Layer" class="shp6" d="M353.37 208.97L352.13 188.33C352.13 186.75 352.1 185.14 352.03 183.55L367.22 182.88C367.3 184.62 367.34 186.37 367.34 188.1L368.55 208.06L353.37 208.97Z" />
	</g>
	<g id="frame">
		<path id="Layer" class="shp7" d="M230.82 403.37L340.49 403.37L340.49 418.58L230.82 418.58L230.82 403.37Z" />
		<path id="Layer" fill-rule="evenodd" class="shp7" d="M454.85 403.37L462.45 403.37L462.45 471.07L303.32 471.07C299.66 494.23 279.56 512 255.38 512C231.21 512 211.1 494.23 207.45 471.07L48.31 471.07L48.31 403.37L55.92 403.37C75.56 403.37 91.87 388.01 93.05 368.41L103.86 189.08C103.92 151.19 118.02 114.97 143.59 87.04C167.47 60.95 199.41 44.16 234.14 39.28L234.14 0L276.63 0L276.63 39.28C311.36 44.16 343.3 60.95 367.18 87.04C392.74 114.97 406.84 151.19 406.9 189.08L417.72 368.41C418.9 388.01 435.21 403.37 454.85 403.37ZM249.35 15.21L249.35 37.91C249.89 37.89 250.44 37.88 250.99 37.86C251.35 37.85 251.71 37.84 252.07 37.83C253.18 37.8 254.29 37.79 255.38 37.79C256.48 37.79 257.58 37.81 258.69 37.83C259.05 37.84 259.42 37.85 259.78 37.86C260.32 37.88 260.87 37.89 261.42 37.91L261.42 15.21L249.35 15.21ZM287.84 471.07L222.93 471.07C226.38 485.79 239.62 496.79 255.38 496.79C271.15 496.79 284.39 485.79 287.84 471.07ZM447.25 455.86L447.25 418.57L361.11 418.57L361.11 403.36L417.97 403.36C409.11 394.58 403.34 382.65 402.54 369.32L391.7 189.54L391.7 189.31C391.7 118.56 338.65 60.23 268.31 53.61C263.98 53.21 259.63 53 255.39 53C251.14 53 246.79 53.2 242.46 53.61C172.12 60.23 119.07 118.56 119.07 189.31L119.06 189.77L108.23 369.32C107.43 382.65 101.66 394.58 92.8 403.36L190.54 403.36L190.54 418.57L63.52 418.57L63.52 455.86L447.25 455.86Z" />
	</g>
</svg>