<svg xmlns="http://www.w3.org/2000/svg" viewBox="0 0 529 566" width="529" height="566">
	<style>
		tspan { white-space:pre }
		.shp0 { fill: #fef5cc } 
		.shp1 { fill: #6d8abf } 
		.shp2 { fill: #fed322 } 
		.shp3 { fill: #ffde56 } 
		.shp4 { fill: #eebf00 } 
		.shp5 { fill: #d0e0fe } 
		.shp6 { fill: #ffffff } 
		.shp7 { fill: #333333 } 
		.shp8 { fill: #c00606 } 
	</style>
	<g id="clapper">
		<path id="clapper" class="shp0" d="M290.32 463.46C290.32 486.07 271.99 504.4 249.38 504.4C226.78 504.4 208.45 486.07 208.45 463.46L290.32 463.46Z" />
		<path id="clapper shadow" class="shp1" d="M287.13 479.31C289.18 474.44 290.32 469.08 290.32 463.46L208.45 463.46C208.45 469.08 209.58 474.44 211.63 479.31L287.13 479.31Z" />
	</g>
	<g id="body">
		<path id="body" fill-rule="evenodd" class="shp2" d="M448.85 410.97L448.85 463.46L49.92 463.46L49.92 410.97C73.62 410.97 93.21 392.52 94.64 368.86L105.47 189.31C105.47 114.43 162.66 52.92 235.74 46.04C240.23 45.62 244.78 45.39 249.38 45.39C253.98 45.39 258.53 45.62 263.02 46.04C264.01 46.14 264.99 46.24 265.97 46.35C337.64 54.58 393.3 115.44 393.3 189.31L404.13 368.86C405.55 392.52 425.15 410.97 448.85 410.97ZM184.45 84.04C180.78 87.46 177.28 91.07 173.98 94.85C177.28 91.07 180.78 87.46 184.45 84.04ZM208.56 65.87C222.5 57.5 237.97 51.42 254.45 48.16C237.97 51.42 222.5 57.5 208.56 65.87Z" />
		<path id="highlight" class="shp3" d="M448.85 410.97C425.15 410.97 405.55 392.52 404.13 368.86L393.3 189.31C393.3 115.44 337.64 54.58 265.97 46.35C262.08 46.8 258.24 47.41 254.46 48.16C320.49 61.23 370.28 119.44 370.28 189.31L381.11 368.87C382.54 392.52 402.13 410.97 425.83 410.97L425.83 410.97L425.83 463.46L448.85 463.46L448.85 410.97L448.85 410.97Z" />
	</g>
	<g id="shadow">
		<path id="Layer" class="shp4" d="M83.08 410.97C106.78 410.97 126.38 392.52 127.8 368.86L138.63 189.31C138.63 115.44 194.3 54.58 265.97 46.35C264.99 46.24 264.01 46.14 263.02 46.04C258.53 45.62 253.98 45.39 249.38 45.39L249.38 45.39C244.78 45.39 240.23 45.62 235.74 46.04C162.66 52.92 105.47 114.43 105.47 189.31L94.64 368.86C93.22 392.52 73.62 410.97 49.92 410.97L49.92 410.97L49.92 463.46L83.08 463.46L83.08 410.97L83.08 410.97Z" />
		<path id="Layer" class="shp4" d="M49.92 410.97L448.85 410.97L448.85 463.46L49.92 463.46L49.92 410.97Z" />
	</g>
	<g id="handle">
		<path id="handle" class="shp1" d="M249.38 45.4C253.98 45.4 258.53 45.62 263.02 46.04L263.02 7.6L235.74 7.6L235.74 46.04C240.23 45.62 244.78 45.4 249.38 45.4L249.38 45.4Z" />
		<path id="handle shadow" class="shp5" d="M235.74 26.4L235.74 46.04C240.23 45.62 244.78 45.39 249.38 45.39L249.38 45.39C253.98 45.39 258.53 45.62 263.02 46.04L263.02 26.4L235.74 26.4Z" />
	</g>
	<g id="reflection">
		<path id="Layer" class="shp6" d="M344.77 171.32C339.31 137.78 317.74 108.83 287.08 93.89L293.74 80.22C328.84 97.32 353.52 130.47 359.78 168.88L344.77 171.32Z" />
		<path id="Layer" class="shp6" d="M347.37 208.97L346.13 188.33C346.13 186.75 346.1 185.14 346.03 183.55L361.22 182.88C361.3 184.62 361.34 186.37 361.34 188.1L362.55 208.06L347.37 208.97Z" />
	</g>
	<g id="frame">
		<path id="Layer" class="shp7" d="M224.82 403.37L334.49 403.37L334.49 418.58L224.82 418.58L224.82 403.37Z" />
		<path id="Layer" fill-rule="evenodd" class="shp7" d="M448.85 403.37L456.45 403.37L456.45 471.07L297.32 471.07C293.66 494.23 273.56 512 249.38 512C225.21 512 205.1 494.23 201.45 471.07L42.31 471.07L42.31 403.37L49.92 403.37C69.56 403.37 85.87 388.01 87.05 368.41L97.86 189.08C97.92 151.19 112.02 114.97 137.59 87.04C161.47 60.95 193.41 44.16 228.14 39.28L228.14 0L270.63 0L270.63 39.28C305.36 44.16 337.3 60.95 361.18 87.04C386.74 114.97 400.84 151.19 400.9 189.08L411.72 368.41C412.9 388.01 429.21 403.37 448.85 403.37ZM243.35 15.21L243.35 37.91C243.89 37.89 244.44 37.88 244.99 37.86C245.35 37.85 245.71 37.84 246.07 37.83C247.18 37.8 248.29 37.79 249.38 37.79C250.48 37.79 251.58 37.81 252.69 37.83C253.05 37.84 253.42 37.85 253.78 37.86C254.32 37.88 254.87 37.89 255.42 37.91L255.42 15.21L243.35 15.21ZM281.84 471.07L216.93 471.07C220.38 485.79 233.62 496.79 249.38 496.79C265.15 496.79 278.39 485.79 281.84 471.07ZM441.25 455.86L441.25 418.57L355.11 418.57L355.11 403.36L411.97 403.36C403.11 394.58 397.34 382.65 396.54 369.32L385.7 189.54L385.7 189.31C385.7 118.56 332.65 60.23 262.31 53.61C257.98 53.21 253.63 53 249.39 53C245.14 53 240.79 53.2 236.46 53.61C166.12 60.23 113.07 118.56 113.07 189.31L113.06 189.77L102.23 369.32C101.43 382.65 95.66 394.58 86.8 403.36L184.54 403.36L184.54 418.57L57.52 418.57L57.52 455.86L441.25 455.86Z" />
	</g>
	<g id="flashes">
		<path id="Layer" class="shp7" d="M448.86 175.61L499.01 175.61L499.01 190.82L448.86 190.82L448.86 175.61Z" />
		<path id="Layer" class="shp7" d="M0.99 175.61L51.14 175.61L51.14 190.82L0.99 190.82L0.99 175.61Z" />
		<path id="Layer" class="shp7" d="M475.94 288.1L429.82 268.38L435.8 254.39L481.92 274.12L475.94 288.1Z" />
		<path id="Layer" class="shp7" d="M24.02 78.33L70.15 98.05L64.17 112.04L18.04 92.31L24.02 78.33Z" />
		<path id="Layer" class="shp7" d="M18.05 274.14L64.18 254.42L70.16 268.4L24.03 288.13L18.05 274.14Z" />
		<path id="Layer" class="shp7" d="M475.95 78.31L481.93 92.29L435.82 112.01L429.84 98.03L475.95 78.31Z" />
	</g>
	<path id="Layer 1" class="shp8" d="M281 288L499 288C515.59 288 529 301.41 529 318L529 536C529 552.59 515.59 566 499 566L281 566C264.41 566 251 552.59 251 536L251 318C251 301.41 264.41 288 281 288Z" />
	<path id="6 " fill-rule="evenodd" class="shp6" d="M439.11 345.48L439.11 367.5C433.05 364.62 426.91 362.43 420.69 360.92C414.54 359.4 408.44 358.64 402.38 358.64C386.43 358.64 374.23 364.03 365.78 374.79C357.4 385.56 352.62 401.83 351.42 423.6C356.13 416.66 362.03 411.36 369.13 407.69C376.22 403.94 384.04 402.07 392.57 402.07C410.52 402.07 424.67 407.53 435.04 418.46C445.49 429.3 450.71 444.1 450.71 462.84C450.71 481.18 445.29 495.9 434.44 506.98C423.6 518.07 409.16 523.61 391.14 523.61C370.48 523.61 354.69 515.72 343.76 499.93C332.84 484.05 327.37 461.09 327.37 431.02C327.37 402.79 334.07 380.3 347.47 363.55C360.87 346.72 378.86 338.31 401.43 338.31C407.49 338.31 413.59 338.9 419.73 340.1C425.95 341.3 432.41 343.09 439.11 345.48ZM391.14 421.21C380.29 421.21 371.68 424.92 365.3 432.33C359 439.75 355.85 449.92 355.85 462.84C355.85 475.68 359 485.85 365.3 493.35C371.68 500.76 380.29 504.47 391.14 504.47C401.98 504.47 410.56 500.76 416.86 493.35C423.24 485.85 426.43 475.68 426.43 462.84C426.43 449.92 423.24 439.75 416.86 432.33C410.56 424.92 401.98 421.21 391.14 421.21Z" />
</svg>